<svg width="84" height="36" viewBox="0 0 84 36" fill="none" xmlns="http://www.w3.org/2000/svg">
<path fill-rule="evenodd" clip-rule="evenodd" d="M55.8689 11.7188C55.0329 10.2008 55.2001 8.23742 56.7351 7.17262C58.0382 6.26866 59.848 5.85735 61.6684 5.4436C64.9923 4.68818 68.3518 3.92464 68.7286 0.13963C68.8942 -1.52399 68.5768 12.2337 60.4332 13.7319C59.4295 13.9166 58.5455 13.8003 57.8086 13.4848V28.1953L59.7188 28.5235V30H55.8047L55.6172 28.4883C55.2031 29.0664 54.6953 29.5039 54.0938 29.8008C53.5 30.0977 52.8086 30.2461 52.0195 30.2461C50.4727 30.2461 49.2617 29.6875 48.3867 28.5703C47.5195 27.4453 47.0859 25.9688 47.0859 24.1406V23.8946C47.0859 21.8555 47.5195 20.211 48.3867 18.961C49.2617 17.711 50.4805 17.086 52.043 17.086C52.793 17.086 53.4531 17.2266 54.0234 17.5078C54.6016 17.7813 55.0938 18.1797 55.5 18.7031V13.5352L53.5898 13.2071V11.7188H55.8689ZM17.6836 28.5235L19.5938 28.1953V19.1367L17.6836 18.8086V17.3203H21.9023V28.1953L23.8125 28.5235V30H17.6836V28.5235ZM21.9023 14.0742H19.5938V11.7188H21.9023V14.0742ZM7.98047 12.9375C10.207 12.9375 11.9961 13.625 13.3477 15C14.707 16.3672 15.3867 18.1367 15.3867 20.3086V22.6406C15.3867 24.8203 14.707 26.5938 13.3477 27.961C11.9961 29.3203 10.207 30 7.98047 30H0.832031V28.5235L2.74219 28.1953V14.7539L0.832031 14.4258V12.9375H7.98047ZM5.05078 14.7539V28.1953H7.98047C9.55859 28.1953 10.8008 27.6758 11.707 26.6367C12.6211 25.5977 13.0781 24.2656 13.0781 22.6406V20.2852C13.0781 18.6758 12.6211 17.3516 11.707 16.3125C10.8008 15.2735 9.55859 14.7539 7.98047 14.7539H5.05078ZM26.9297 18.961C26.0391 20.211 25.5938 21.8555 25.5938 23.8946V24.1406C25.5938 25.961 26.0391 27.4336 26.9297 28.5586C27.8203 29.6836 29.043 30.2461 30.5977 30.2461C31.3477 30.2461 32.0117 30.1094 32.5898 29.836C33.168 29.5625 33.6641 29.1602 34.0781 28.6289V29.836C34.0781 30.9063 33.8359 31.7305 33.3516 32.3086C32.875 32.8867 32.1211 33.1758 31.0898 33.1758C30.5352 33.1758 29.9648 33.1016 29.3789 32.9531C28.793 32.8047 28.2852 32.6172 27.8555 32.3906L27.2578 34.1836C27.7969 34.4727 28.4219 34.6992 29.1328 34.8633C29.8438 35.0352 30.5039 35.1211 31.1133 35.1211C32.8008 35.1211 34.1016 34.6485 35.0156 33.7031C35.9297 32.7656 36.3867 31.4766 36.3867 29.836V17.3203H34.4414L34.2305 18.9141C33.8242 18.3203 33.3203 17.8672 32.7188 17.5547C32.1172 17.2422 31.418 17.086 30.6211 17.086C29.0508 17.086 27.8203 17.711 26.9297 18.961ZM28.7109 27.211C28.1719 26.4375 27.9023 25.4141 27.9023 24.1406V23.8946C27.9023 22.4492 28.1758 21.2656 28.7227 20.3438C29.2695 19.4219 30.0938 18.961 31.1953 18.961C31.8672 18.961 32.4414 19.1211 32.918 19.4414C33.3945 19.7539 33.7812 20.1797 34.0781 20.7188V26.5547C33.7734 27.1328 33.3867 27.5821 32.918 27.9024C32.4492 28.2149 31.8672 28.3711 31.1719 28.3711C30.0703 28.3711 29.25 27.9844 28.7109 27.211ZM39.1758 28.5235L41.0859 28.1953V19.1367L39.1758 18.8086V17.3203H43.3945V28.1953L45.3047 28.5235V30H39.1758V28.5235ZM43.3945 14.0742H41.0859V11.7188H43.3945V14.0742ZM50.1797 27.211C49.6562 26.4375 49.3945 25.4141 49.3945 24.1406V23.8946C49.3945 22.4336 49.6562 21.2461 50.1797 20.3321C50.7109 19.418 51.5273 18.961 52.6289 18.961C53.293 18.961 53.8633 19.1172 54.3398 19.4297C54.8164 19.7422 55.2031 20.1641 55.5 20.6953V26.5781C55.1953 27.1485 54.8086 27.5899 54.3398 27.9024C53.8711 28.2149 53.293 28.3711 52.6055 28.3711C51.5117 28.3711 50.7031 27.9844 50.1797 27.211ZM61.4883 18.8086V17.3203H65.4609L65.6836 19.1602C66.043 18.5117 66.4844 18.0039 67.0078 17.6367C67.5391 17.2696 68.1445 17.086 68.8242 17.086C69.0039 17.086 69.1875 17.1016 69.375 17.1328C69.5703 17.1563 69.7188 17.1836 69.8203 17.2149L69.5156 19.3594L68.2031 19.2891C67.5938 19.2891 67.082 19.4336 66.668 19.7227C66.2539 20.0039 65.9336 20.4024 65.707 20.918V28.1953L67.6172 28.5235V30H61.4883V28.5235L63.3984 28.1953V19.1367L61.4883 18.8086ZM82.5469 18.9844L83.6836 18.8086V17.3203H78.5742V18.8086L80.0156 19.043L77.3789 26.918H77.3086L76.8867 25.3008L74.6953 19.043L76.125 18.8086V17.3203H71.0039V18.8086L72.1641 18.9961L76.3477 29.7539L75.7969 31.0664C75.5703 31.6211 75.3047 32.1094 75 32.5313C74.6953 32.961 74.2969 33.1758 73.8047 33.1758C73.7188 33.1758 73.5117 33.1641 73.1836 33.1406C72.8633 33.1172 72.7266 33.1094 72.7734 33.1172L72.5391 34.9336C72.6953 34.9727 72.918 35.0117 73.207 35.0508C73.4961 35.0977 73.7305 35.1211 73.9102 35.1211C74.9258 35.1211 75.7344 34.8047 76.3359 34.1719C76.9375 33.5391 77.3984 32.7969 77.7188 31.9453L82.5469 18.9844Z" fill="#27AE60"/>
</svg>
